<svg xmlns="http://www.w3.org/2000/svg" viewBox="0 0 32 32" fill="none">
  <defs>
    <linearGradient id="grad1" x1="0%" y1="0%" x2="100%" y2="100%">
      <stop offset="0%" style="stop-color:#10b981;stop-opacity:1" />
      <stop offset="100%" style="stop-color:#059669;stop-opacity:1" />
    </linearGradient>
  </defs>
  <!-- Background circle -->
  <circle cx="16" cy="16" r="15" fill="url(#grad1)" stroke="#ffffff" stroke-width="2"/>
  <!-- Automation/gear icon -->
  <g fill="#ffffff">
    <!-- Main gear -->
    <path d="M16 8c-1.1 0-2 .9-2 2v1c-.6.3-1.1.7-1.5 1.2l-.9-.5c-.9-.5-2.1-.2-2.6.7-.5.9-.2 2.1.7 2.6l.9.5c0 .7 0 1.3 0 2l-.9.5c-.9.5-1.2 1.7-.7 2.6.5.9 1.7 1.2 2.6.7l.9-.5c.4.5.9.9 1.5 1.2v1c0 1.1.9 2 2 2s2-.9 2-2v-1c.6-.3 1.1-.7 1.5-1.2l.9.5c.9.5 2.1.2 2.6-.7.5-.9.2-2.1-.7-2.6l-.9-.5c0-.7 0-1.3 0-2l.9-.5c.9-.5 1.2-1.7.7-2.6-.5-.9-1.7-1.2-2.6-.7l-.9.5c-.4-.5-.9-.9-1.5-1.2v-1c0-1.1-.9-2-2-2z"/>
    <!-- Inner circle -->
    <circle cx="16" cy="16" r="3" fill="url(#grad1)"/>
    <!-- Task checkmarks -->
    <path d="M8 8l2 2 4-4" stroke="#ffffff" stroke-width="1.5" fill="none" stroke-linecap="round"/>
    <path d="M20 8l2 2 4-4" stroke="#ffffff" stroke-width="1.5" fill="none" stroke-linecap="round"/>
  </g>
</svg>